<svg xmlns="http://www.w3.org/2000/svg" viewBox="0 0 400 300" width="400" height="300">
  <!-- edge-wear mask: parchment with deckled / torn edges -->
  <path d="M 0.00 8.63 L 6.67 1.87 L 13.33 4.65 L 20.00 4.86 L 26.67 0.42 L 33.33 0.05 L 40.00 3.27 L 46.67 0.13 L 53.33 1.31 L 60.00 7.12 L 66.67 6.85 L 73.33 0.13 L 80.00 0.06 L 86.67 0.45 L 93.33 6.17 L 100.00 0.01 L 106.67 0.46 L 113.33 0.10 L 120.00 0.15 L 126.67 2.47 L 133.33 0.30 L 140.00 1.51 L 146.67 4.84 L 153.33 4.70 L 160.00 1.55 L 166.67 5.56 L 173.33 2.95 L 180.00 6.15 L 186.67 0.56 L 193.33 1.23 L 200.00 3.03 L 206.67 8.05 L 213.33 3.44 L 220.00 2.03 L 226.67 0.57 L 233.33 0.71 L 240.00 0.42 L 246.67 8.76 L 253.33 7.07 L 260.00 7.20 L 266.67 2.51 L 273.33 4.52 L 280.00 0.79 L 286.67 2.09 L 293.33 0.19 L 300.00 1.59 L 306.67 0.57 L 313.33 0.09 L 320.00 7.61 L 326.67 0.08 L 333.33 5.95 L 340.00 4.40 L 346.67 0.07 L 353.33 2.12 L 360.00 8.93 L 366.67 8.77 L 373.33 2.86 L 380.00 5.36 L 386.67 4.52 L 393.33 0.77 L 397.28 0.00 L 396.79 5.00 L 398.60 10.00 L 393.96 15.00 L 398.22 20.00 L 394.94 25.00 L 399.96 30.00 L 398.22 35.00 L 399.98 40.00 L 396.23 45.00 L 393.15 50.00 L 397.34 55.00 L 397.12 60.00 L 396.51 65.00 L 399.53 70.00 L 398.66 75.00 L 396.99 80.00 L 396.24 85.00 L 398.70 90.00 L 397.95 95.00 L 399.02 100.00 L 397.23 105.00 L 395.89 110.00 L 399.03 115.00 L 395.78 120.00 L 393.51 125.00 L 397.41 130.00 L 391.35 135.00 L 399.14 140.00 L 392.39 145.00 L 399.70 150.00 L 398.81 155.00 L 393.99 160.00 L 399.99 165.00 L 396.60 170.00 L 393.17 175.00 L 391.98 180.00 L 395.81 185.00 L 398.93 190.00 L 399.01 195.00 L 396.41 200.00 L 399.96 205.00 L 399.99 210.00 L 393.00 215.00 L 396.46 220.00 L 399.76 225.00 L 398.35 230.00 L 399.25 235.00 L 393.20 240.00 L 399.26 245.00 L 395.28 250.00 L 395.02 255.00 L 399.09 260.00 L 399.43 265.00 L 397.56 270.00 L 398.56 275.00 L 396.82 280.00 L 399.03 285.00 L 394.32 290.00 L 398.41 295.00 L 400.00 299.83 L 393.33 294.60 L 386.67 292.79 L 380.00 295.82 L 373.33 297.31 L 366.67 293.16 L 360.00 292.15 L 353.33 300.00 L 346.67 297.86 L 340.00 300.00 L 333.33 299.00 L 326.67 299.47 L 320.00 298.08 L 313.33 295.87 L 306.67 293.33 L 300.00 299.39 L 293.33 300.00 L 286.67 291.02 L 280.00 294.49 L 273.33 297.27 L 266.67 299.89 L 260.00 299.98 L 253.33 292.15 L 246.67 297.48 L 240.00 293.34 L 233.33 294.47 L 226.67 294.92 L 220.00 294.16 L 213.33 299.42 L 206.67 299.45 L 200.00 298.31 L 193.33 294.70 L 186.67 294.32 L 180.00 294.84 L 173.33 296.98 L 166.67 297.95 L 160.00 299.66 L 153.33 296.00 L 146.67 296.15 L 140.00 297.62 L 133.33 295.25 L 126.67 291.37 L 120.00 291.99 L 113.33 299.90 L 106.67 299.26 L 100.00 296.62 L 93.33 295.72 L 86.67 299.27 L 80.00 292.20 L 73.33 298.09 L 66.67 294.73 L 60.00 299.98 L 53.33 299.30 L 46.67 300.00 L 40.00 294.37 L 33.33 297.55 L 26.67 291.83 L 20.00 296.69 L 13.33 299.05 L 6.67 298.86 L 1.27 300.00 L 0.35 295.00 L 0.10 290.00 L 3.80 285.00 L 0.89 280.00 L 1.85 275.00 L 4.53 270.00 L 0.68 265.00 L 1.74 260.00 L 0.94 255.00 L 0.95 250.00 L 4.00 245.00 L 0.09 240.00 L 1.44 235.00 L 0.11 230.00 L 4.04 225.00 L 0.80 220.00 L 8.38 215.00 L 2.10 210.00 L 3.94 205.00 L 2.47 200.00 L 6.05 195.00 L 4.42 190.00 L 3.70 185.00 L 0.01 180.00 L 0.18 175.00 L 5.07 170.00 L 1.53 165.00 L 8.57 160.00 L 3.64 155.00 L 6.10 150.00 L 5.00 145.00 L 8.35 140.00 L 3.89 135.00 L 7.91 130.00 L 1.63 125.00 L 0.64 120.00 L 0.11 115.00 L 0.57 110.00 L 7.20 105.00 L 3.90 100.00 L 0.02 95.00 L 0.01 90.00 L 1.91 85.00 L 2.67 80.00 L 1.17 75.00 L 0.00 70.00 L 0.62 65.00 L 6.92 60.00 L 4.74 55.00 L 6.03 50.00 L 0.65 45.00 L 4.01 40.00 L 0.35 35.00 L 0.82 30.00 L 8.23 25.00 L 0.41 20.00 L 0.77 15.00 L 0.43 10.00 L 6.79 5.00 Z" fill="oklch(89% 0.04 80)" />
</svg>
