<svg xmlns="http://www.w3.org/2000/svg" viewBox="0 0 400 300" width="400" height="300">
  <!-- edge-wear mask: parchment with deckled / torn edges -->
  <path d="M 0.00 0.20 L 6.67 3.41 L 13.33 0.26 L 20.00 4.57 L 26.67 3.33 L 33.33 1.33 L 40.00 3.43 L 46.67 2.89 L 53.33 0.02 L 60.00 2.53 L 66.67 3.46 L 73.33 2.43 L 80.00 6.96 L 86.67 4.87 L 93.33 1.28 L 100.00 0.46 L 106.67 0.15 L 113.33 5.91 L 120.00 4.28 L 126.67 3.34 L 133.33 1.76 L 140.00 2.26 L 146.67 0.44 L 153.33 2.53 L 160.00 0.19 L 166.67 3.47 L 173.33 3.57 L 180.00 4.04 L 186.67 0.55 L 193.33 0.08 L 200.00 1.00 L 206.67 4.26 L 213.33 2.34 L 220.00 5.03 L 226.67 1.67 L 233.33 1.43 L 240.00 7.41 L 246.67 0.25 L 253.33 0.39 L 260.00 3.12 L 266.67 3.59 L 273.33 1.69 L 280.00 2.80 L 286.67 1.75 L 293.33 4.02 L 300.00 7.11 L 306.67 6.13 L 313.33 3.68 L 320.00 1.99 L 326.67 8.08 L 333.33 1.80 L 340.00 3.52 L 346.67 6.79 L 353.33 4.20 L 360.00 1.37 L 366.67 4.97 L 373.33 3.24 L 380.00 7.53 L 386.67 3.49 L 393.33 2.56 L 391.46 0.00 L 397.49 5.00 L 398.57 10.00 L 392.09 15.00 L 391.98 20.00 L 399.73 25.00 L 399.95 30.00 L 393.37 35.00 L 392.99 40.00 L 398.67 45.00 L 399.42 50.00 L 395.78 55.00 L 392.05 60.00 L 399.59 65.00 L 398.20 70.00 L 396.05 75.00 L 399.56 80.00 L 398.45 85.00 L 399.82 90.00 L 397.93 95.00 L 399.52 100.00 L 399.94 105.00 L 398.64 110.00 L 399.80 115.00 L 399.87 120.00 L 399.80 125.00 L 398.43 130.00 L 399.09 135.00 L 395.23 140.00 L 398.45 145.00 L 399.47 150.00 L 399.68 155.00 L 399.21 160.00 L 395.03 165.00 L 399.63 170.00 L 398.05 175.00 L 394.14 180.00 L 393.80 185.00 L 398.08 190.00 L 393.61 195.00 L 396.29 200.00 L 399.54 205.00 L 399.92 210.00 L 399.74 215.00 L 394.38 220.00 L 398.63 225.00 L 393.69 230.00 L 391.58 235.00 L 392.39 240.00 L 398.02 245.00 L 400.00 250.00 L 399.31 255.00 L 399.57 260.00 L 396.21 265.00 L 395.57 270.00 L 392.36 275.00 L 395.52 280.00 L 391.71 285.00 L 396.34 290.00 L 397.97 295.00 L 400.00 293.70 L 393.33 299.32 L 386.67 294.55 L 380.00 295.24 L 373.33 293.24 L 366.67 299.97 L 360.00 299.68 L 353.33 291.88 L 346.67 299.82 L 340.00 298.17 L 333.33 296.74 L 326.67 297.91 L 320.00 293.04 L 313.33 291.78 L 306.67 298.95 L 300.00 299.84 L 293.33 292.47 L 286.67 298.15 L 280.00 299.44 L 273.33 299.83 L 266.67 300.00 L 260.00 296.94 L 253.33 299.29 L 246.67 297.21 L 240.00 292.31 L 233.33 297.89 L 226.67 291.82 L 220.00 299.96 L 213.33 294.83 L 206.67 294.87 L 200.00 291.73 L 193.33 299.99 L 186.67 297.69 L 180.00 297.21 L 173.33 296.78 L 166.67 298.00 L 160.00 299.33 L 153.33 292.66 L 146.67 293.06 L 140.00 295.57 L 133.33 291.72 L 126.67 297.24 L 120.00 299.94 L 113.33 295.66 L 106.67 299.90 L 100.00 294.93 L 93.33 296.21 L 86.67 299.61 L 80.00 299.79 L 73.33 299.96 L 66.67 299.72 L 60.00 291.39 L 53.33 299.53 L 46.67 292.97 L 40.00 299.84 L 33.33 298.97 L 26.67 297.99 L 20.00 298.84 L 13.33 291.63 L 6.67 299.48 L 2.10 300.00 L 0.38 295.00 L 0.11 290.00 L 4.29 285.00 L 1.04 280.00 L 2.13 275.00 L 4.32 270.00 L 0.07 265.00 L 0.03 260.00 L 4.25 255.00 L 8.89 250.00 L 0.00 245.00 L 1.84 240.00 L 8.90 235.00 L 6.25 230.00 L 8.81 225.00 L 2.52 220.00 L 8.50 215.00 L 0.03 210.00 L 2.00 205.00 L 6.47 200.00 L 1.37 195.00 L 1.75 190.00 L 1.81 185.00 L 1.30 180.00 L 5.95 175.00 L 8.52 170.00 L 0.48 165.00 L 0.94 160.00 L 5.82 155.00 L 4.98 150.00 L 5.97 145.00 L 4.18 140.00 L 7.53 135.00 L 6.42 130.00 L 3.61 125.00 L 0.72 120.00 L 0.07 115.00 L 6.66 110.00 L 6.63 105.00 L 7.15 100.00 L 0.63 95.00 L 4.91 90.00 L 7.79 85.00 L 0.38 80.00 L 0.01 75.00 L 0.27 70.00 L 0.43 65.00 L 4.16 60.00 L 6.07 55.00 L 6.03 50.00 L 4.27 45.00 L 8.62 40.00 L 8.51 35.00 L 1.74 30.00 L 7.64 25.00 L 4.65 20.00 L 0.54 15.00 L 3.08 10.00 L 0.26 5.00 Z" fill="oklch(89% 0.04 80)" />
</svg>
