<svg xmlns="http://www.w3.org/2000/svg" viewBox="0 0 400 300" width="400" height="300">
  <!-- edge-wear mask: parchment with deckled / torn edges -->
  <path d="M 0.00 8.29 L 6.67 6.84 L 13.33 4.82 L 20.00 0.47 L 26.67 0.98 L 33.33 4.59 L 40.00 5.86 L 46.67 0.00 L 53.33 0.25 L 60.00 7.22 L 66.67 0.13 L 73.33 3.87 L 80.00 0.98 L 86.67 3.75 L 93.33 6.69 L 100.00 3.04 L 106.67 1.38 L 113.33 0.94 L 120.00 3.48 L 126.67 3.55 L 133.33 1.51 L 140.00 1.96 L 146.67 2.59 L 153.33 0.60 L 160.00 0.29 L 166.67 2.91 L 173.33 0.09 L 180.00 3.22 L 186.67 5.79 L 193.33 6.17 L 200.00 0.57 L 206.67 1.55 L 213.33 7.67 L 220.00 1.10 L 226.67 8.85 L 233.33 0.36 L 240.00 6.36 L 246.67 0.02 L 253.33 4.01 L 260.00 5.84 L 266.67 2.70 L 273.33 3.60 L 280.00 7.51 L 286.67 8.93 L 293.33 0.29 L 300.00 2.46 L 306.67 0.01 L 313.33 1.29 L 320.00 0.19 L 326.67 0.23 L 333.33 3.51 L 340.00 0.06 L 346.67 0.21 L 353.33 0.00 L 360.00 5.96 L 366.67 0.53 L 373.33 0.05 L 380.00 3.47 L 386.67 4.63 L 393.33 3.58 L 397.30 0.00 L 397.43 5.00 L 395.34 10.00 L 399.13 15.00 L 393.61 20.00 L 395.67 25.00 L 393.37 30.00 L 392.86 35.00 L 393.66 40.00 L 397.57 45.00 L 397.54 50.00 L 395.16 55.00 L 396.98 60.00 L 399.99 65.00 L 392.43 70.00 L 399.64 75.00 L 397.89 80.00 L 398.16 85.00 L 399.92 90.00 L 396.99 95.00 L 396.86 100.00 L 394.05 105.00 L 396.63 110.00 L 399.15 115.00 L 397.13 120.00 L 391.72 125.00 L 396.35 130.00 L 393.59 135.00 L 400.00 140.00 L 395.72 145.00 L 399.60 150.00 L 399.76 155.00 L 399.01 160.00 L 399.72 165.00 L 399.93 170.00 L 399.60 175.00 L 399.52 180.00 L 399.44 185.00 L 394.26 190.00 L 399.94 195.00 L 399.64 200.00 L 399.97 205.00 L 397.69 210.00 L 399.53 215.00 L 397.46 220.00 L 399.49 225.00 L 399.65 230.00 L 397.86 235.00 L 399.95 240.00 L 392.96 245.00 L 397.15 250.00 L 398.59 255.00 L 397.28 260.00 L 391.92 265.00 L 397.80 270.00 L 398.60 275.00 L 399.58 280.00 L 398.70 285.00 L 394.61 290.00 L 396.62 295.00 L 400.00 299.32 L 393.33 292.73 L 386.67 299.84 L 380.00 298.86 L 373.33 294.58 L 366.67 292.46 L 360.00 298.10 L 353.33 300.00 L 346.67 297.17 L 340.00 298.36 L 333.33 299.99 L 326.67 298.91 L 320.00 293.00 L 313.33 299.99 L 306.67 299.71 L 300.00 299.75 L 293.33 294.27 L 286.67 299.15 L 280.00 295.78 L 273.33 295.90 L 266.67 300.00 L 260.00 298.27 L 253.33 299.87 L 246.67 294.25 L 240.00 297.85 L 233.33 298.78 L 226.67 294.06 L 220.00 293.91 L 213.33 299.96 L 206.67 299.92 L 200.00 299.06 L 193.33 299.12 L 186.67 298.25 L 180.00 298.36 L 173.33 291.49 L 166.67 295.94 L 160.00 291.68 L 153.33 296.56 L 146.67 299.51 L 140.00 297.10 L 133.33 299.77 L 126.67 296.93 L 120.00 299.82 L 113.33 292.20 L 106.67 299.17 L 100.00 292.80 L 93.33 299.56 L 86.67 299.61 L 80.00 299.45 L 73.33 293.90 L 66.67 293.83 L 60.00 295.00 L 53.33 297.03 L 46.67 299.81 L 40.00 299.49 L 33.33 299.99 L 26.67 292.21 L 20.00 299.85 L 13.33 295.39 L 6.67 300.00 L 0.73 300.00 L 3.27 295.00 L 0.30 290.00 L 0.04 285.00 L 7.22 280.00 L 0.74 275.00 L 0.00 270.00 L 4.47 265.00 L 8.81 260.00 L 2.68 255.00 L 0.01 250.00 L 1.57 245.00 L 3.34 240.00 L 0.54 235.00 L 1.57 230.00 L 4.95 225.00 L 3.89 220.00 L 6.22 215.00 L 8.13 210.00 L 2.42 205.00 L 8.66 200.00 L 0.12 195.00 L 2.41 190.00 L 4.11 185.00 L 7.76 180.00 L 1.99 175.00 L 1.72 170.00 L 7.16 165.00 L 1.99 160.00 L 0.03 155.00 L 1.83 150.00 L 0.66 145.00 L 3.87 140.00 L 6.00 135.00 L 0.02 130.00 L 0.90 125.00 L 7.28 120.00 L 5.89 115.00 L 5.52 110.00 L 1.36 105.00 L 8.20 100.00 L 6.48 95.00 L 6.04 90.00 L 2.66 85.00 L 3.70 80.00 L 0.16 75.00 L 0.01 70.00 L 0.00 65.00 L 0.03 60.00 L 2.34 55.00 L 8.04 50.00 L 2.98 45.00 L 5.59 40.00 L 5.12 35.00 L 8.03 30.00 L 0.69 25.00 L 2.22 20.00 L 7.70 15.00 L 0.98 10.00 L 4.38 5.00 Z" fill="oklch(89% 0.04 80)" />
</svg>
