<svg xmlns="http://www.w3.org/2000/svg" viewBox="0 0 400 300" width="400" height="300">
  <!-- edge-wear mask: parchment with deckled / torn edges -->
  <path d="M 0.00 0.19 L 6.67 1.86 L 13.33 5.35 L 20.00 4.48 L 26.67 4.82 L 33.33 1.69 L 40.00 5.76 L 46.67 2.56 L 53.33 0.06 L 60.00 1.87 L 66.67 0.02 L 73.33 7.83 L 80.00 8.07 L 86.67 1.01 L 93.33 0.86 L 100.00 5.31 L 106.67 0.37 L 113.33 0.29 L 120.00 0.32 L 126.67 1.08 L 133.33 3.53 L 140.00 8.35 L 146.67 0.40 L 153.33 8.23 L 160.00 2.78 L 166.67 7.31 L 173.33 6.02 L 180.00 0.23 L 186.67 3.79 L 193.33 0.14 L 200.00 0.00 L 206.67 1.41 L 213.33 5.38 L 220.00 2.88 L 226.67 0.33 L 233.33 6.37 L 240.00 7.51 L 246.67 0.51 L 253.33 1.81 L 260.00 3.66 L 266.67 7.33 L 273.33 0.14 L 280.00 2.76 L 286.67 8.44 L 293.33 3.34 L 300.00 4.63 L 306.67 5.41 L 313.33 2.31 L 320.00 0.76 L 326.67 3.14 L 333.33 2.51 L 340.00 1.06 L 346.67 6.57 L 353.33 1.19 L 360.00 2.10 L 366.67 5.22 L 373.33 5.96 L 380.00 7.14 L 386.67 3.82 L 393.33 0.57 L 393.54 0.00 L 392.56 5.00 L 395.40 10.00 L 394.71 15.00 L 397.63 20.00 L 397.81 25.00 L 396.94 30.00 L 399.81 35.00 L 395.89 40.00 L 393.32 45.00 L 399.76 50.00 L 394.89 55.00 L 395.51 60.00 L 399.87 65.00 L 399.98 70.00 L 396.81 75.00 L 399.57 80.00 L 399.14 85.00 L 396.53 90.00 L 396.19 95.00 L 394.95 100.00 L 397.09 105.00 L 399.00 110.00 L 400.00 115.00 L 399.88 120.00 L 399.67 125.00 L 397.52 130.00 L 395.33 135.00 L 399.61 140.00 L 398.63 145.00 L 392.11 150.00 L 398.56 155.00 L 395.42 160.00 L 396.56 165.00 L 396.08 170.00 L 397.95 175.00 L 397.33 180.00 L 395.58 185.00 L 399.77 190.00 L 394.26 195.00 L 393.14 200.00 L 399.98 205.00 L 399.65 210.00 L 399.44 215.00 L 399.92 220.00 L 399.82 225.00 L 396.30 230.00 L 399.86 235.00 L 399.96 240.00 L 391.95 245.00 L 398.55 250.00 L 397.37 255.00 L 397.98 260.00 L 398.94 265.00 L 398.14 270.00 L 399.66 275.00 L 396.98 280.00 L 399.43 285.00 L 399.81 290.00 L 399.61 295.00 L 400.00 298.47 L 393.33 292.21 L 386.67 296.78 L 380.00 291.34 L 373.33 298.55 L 366.67 299.39 L 360.00 295.45 L 353.33 299.67 L 346.67 291.03 L 340.00 298.63 L 333.33 299.34 L 326.67 299.34 L 320.00 299.17 L 313.33 292.10 L 306.67 291.14 L 300.00 297.19 L 293.33 299.52 L 286.67 300.00 L 280.00 299.94 L 273.33 299.20 L 266.67 296.28 L 260.00 296.47 L 253.33 293.45 L 246.67 293.93 L 240.00 298.88 L 233.33 295.91 L 226.67 298.22 L 220.00 295.23 L 213.33 299.69 L 206.67 291.42 L 200.00 300.00 L 193.33 296.57 L 186.67 298.88 L 180.00 294.23 L 173.33 299.81 L 166.67 292.86 L 160.00 300.00 L 153.33 295.14 L 146.67 295.55 L 140.00 297.68 L 133.33 299.73 L 126.67 298.69 L 120.00 298.20 L 113.33 299.59 L 106.67 299.77 L 100.00 293.61 L 93.33 297.28 L 86.67 299.34 L 80.00 296.48 L 73.33 296.39 L 66.67 299.83 L 60.00 296.92 L 53.33 296.93 L 46.67 299.89 L 40.00 299.19 L 33.33 293.29 L 26.67 296.98 L 20.00 299.55 L 13.33 298.61 L 6.67 298.11 L 4.51 300.00 L 6.67 295.00 L 0.07 290.00 L 0.02 285.00 L 1.75 280.00 L 0.00 275.00 L 0.21 270.00 L 0.10 265.00 L 0.07 260.00 L 3.52 255.00 L 0.08 250.00 L 2.89 245.00 L 8.40 240.00 L 0.18 235.00 L 5.18 230.00 L 3.07 225.00 L 0.26 220.00 L 8.12 215.00 L 4.88 210.00 L 1.30 205.00 L 7.10 200.00 L 0.10 195.00 L 6.26 190.00 L 6.39 185.00 L 0.12 180.00 L 7.54 175.00 L 5.53 170.00 L 7.53 165.00 L 0.71 160.00 L 4.91 155.00 L 5.47 150.00 L 1.09 145.00 L 0.01 140.00 L 0.00 135.00 L 2.31 130.00 L 2.70 125.00 L 0.14 120.00 L 3.58 115.00 L 0.02 110.00 L 2.06 105.00 L 2.35 100.00 L 0.37 95.00 L 0.02 90.00 L 7.34 85.00 L 6.54 80.00 L 3.11 75.00 L 0.01 70.00 L 2.48 65.00 L 8.35 60.00 L 5.30 55.00 L 4.27 50.00 L 0.01 45.00 L 3.01 40.00 L 0.49 35.00 L 8.76 30.00 L 0.00 25.00 L 0.45 20.00 L 6.97 15.00 L 0.13 10.00 L 0.81 5.00 Z" fill="oklch(89% 0.04 80)" />
</svg>
